<svg xmlns="http://www.w3.org/2000/svg" viewBox="0 0 200 200" fill="none">
<path d="M58.9084 177.271C71.556 184.007 85.6703 187.519 100 187.495C148.325 187.495 187.5 148.321 187.5 99.9976C187.5 51.6743 148.325 12.4997 100 12.4997C51.6751 12.4997 12.5001 51.6743 12.5001 99.9976C12.5001 114.872 16.2084 128.864 22.7418 141.113C24.2661 143.967 24.6245 147.301 23.7418 150.413L13.4584 186.554L49.6084 176.279C52.7199 175.394 56.0535 175.749 58.9084 177.271ZM100 199.995C83.6177 200.018 67.4827 196 53.0251 188.295L13.2751 199.604C11.4907 200.11 9.60336 200.132 7.80805 199.665C6.01274 199.198 4.37461 198.261 3.06295 196.949C1.75129 195.637 0.813675 193.999 0.347007 192.204C-0.119661 190.409 -0.0984536 188.521 0.408435 186.737L11.7084 146.988C3.99834 132.527 -0.0233528 116.386 0.000102007 99.9976C0.000102007 44.7744 44.7751 0 100 0C155.225 0 200 44.7744 200 99.9976C200 155.221 155.225 199.995 100 199.995Z" fill="#0070F0"/>
<path d="M81.6884 149.869C82.9094 150.388 84.1974 149.264 83.4498 148.333C79.3922 143.281 75.5499 134.779 81.6716 123.831C91.8804 105.573 98.0924 96.1169 98.0924 96.1169C98.0924 96.1169 101.397 107.152 110.353 116.964C118.974 126.407 123.692 138.284 116.085 148.178C115.371 149.107 116.63 150.202 117.843 149.706C127.259 145.852 137.82 138.123 139.012 122.742C139.451 118.042 138.792 111.462 135.497 103.159C131.261 92.6347 126.053 87.724 123.04 85.6152C122.138 84.9843 120.737 85.5435 120.811 86.4997C121.689 97.8549 116.349 100.736 113.309 94.2425C112.095 91.6487 111.388 87.1624 111.388 81.699C111.388 72.6034 108.089 63.2403 100.817 55.6318C98.9255 53.6532 96.7127 51.8044 94.1739 50.2277C93.2548 49.6568 91.9225 50.2307 92.0066 51.1591C92.565 57.3251 92.0591 74.9966 72.6798 96.1084C55.1085 115.692 61.9173 130.732 64.3334 134.805C68.9526 142.609 75.3959 147.192 81.6884 149.869Z" fill="#0070F0"/>
</svg>
